HIERARCHY
ROOT Hips
{
	OFFSET 0.000000 0.000000 0.000000
	CHANNELS 6 Xposition Yposition Zposition Zrotation Xrotation Yrotation
	JOINT Spine
	{
		OFFSET 0.000001 1.152660 1.729000
		CHANNELS 3 Zrotation Xrotation Yrotation
		JOINT Spine1
		{
			OFFSET 0.000001 0.400320 2.270310
			CHANNELS 3 Zrotation Xrotation Yrotation
			JOINT Spine2
			{
				OFFSET 0.000001 0.200920 2.296560
				CHANNELS 3 Zrotation Xrotation Yrotation
				JOINT Spine3
				{
					OFFSET 0.000001 -0.000000 2.305330
					CHANNELS 3 Zrotation Xrotation Yrotation
					JOINT Neck
					{
						OFFSET 0.000002 -0.864494 6.051490
						CHANNELS 3 Zrotation Xrotation Yrotation
						JOINT Head
						{
							OFFSET 0.000001 -0.550431 3.121671
							CHANNELS 3 Zrotation Xrotation Yrotation
							End Site
							{
								OFFSET 0.000001 -0.000003 3.731750
							}
						}
					}
					JOINT RightShoulder
					{
						OFFSET -0.788279 -1.313802 4.256720
						CHANNELS 3 Zrotation Xrotation Yrotation
						JOINT RightArm
						{
							OFFSET -3.915130 0.000002 0.000003
							CHANNELS 3 Zrotation Xrotation Yrotation
							JOINT RightForeArm
							{
								OFFSET -6.914911 0.000003 0.000002
								CHANNELS 3 Zrotation Xrotation Yrotation
								JOINT RightHand
								{
									OFFSET -6.096219 0.000002 0.000002
									CHANNELS 3 Zrotation Xrotation Yrotation
									JOINT RightHandEnd
									{
										OFFSET -1.749950 0.000001 0.000001
										CHANNELS 3 Zrotation Xrotation Yrotation
										End Site
										{
											OFFSET -1.749950 0.000001 0.000001
										}
									}
									JOINT RightHandThumb1
									{
										OFFSET -0.699980 -1.166630 -0.466650
										CHANNELS 3 Zrotation Xrotation Yrotation
										End Site
										{
											OFFSET -1.690319 -0.452919 0.000001
										}
									}
								}
							}
						}
					}
					JOINT LeftShoulder
					{
						OFFSET 0.788281 -1.313803 4.256720
						CHANNELS 3 Zrotation Xrotation Yrotation
						JOINT LeftArm
						{
							OFFSET 3.915130 -0.000002 -0.000003
							CHANNELS 3 Zrotation Xrotation Yrotation
							JOINT LeftForeArm
							{
								OFFSET 6.914909 -0.000003 -0.000002
								CHANNELS 3 Zrotation Xrotation Yrotation
								JOINT LeftHand
								{
									OFFSET 6.096218 -0.000002 -0.000002
									CHANNELS 3 Zrotation Xrotation Yrotation
									JOINT LeftHandEnd
									{
										OFFSET 1.749950 -0.000001 -0.000001
										CHANNELS 3 Zrotation Xrotation Yrotation
										End Site
										{
											OFFSET 1.749950 -0.000001 -0.000001
										}
									}
									JOINT LeftHandThumb1
									{
										OFFSET 0.699980 -1.166630 -0.466650
										CHANNELS 3 Zrotation Xrotation Yrotation
										End Site
										{
											OFFSET 1.690319 -0.452921 -0.000001
										}
									}
								}
							}
						}
					}
				}
			}
		}
	}
	JOINT RightUpLeg
	{
		OFFSET -2.338570 0.000001 -0.683179
		CHANNELS 3 Zrotation Xrotation Yrotation
		JOINT RightLeg
		{
			OFFSET -0.000005 0.000007 -10.744960
			CHANNELS 3 Zrotation Xrotation Yrotation
			JOINT RightFoot
			{
				OFFSET -0.000005 0.000007 -10.930851
				CHANNELS 3 Zrotation Xrotation Yrotation
				JOINT RightToeBase
				{
					OFFSET -0.000002 -4.087270 -1.487650
					CHANNELS 3 Zrotation Xrotation Yrotation
					End Site
					{
						OFFSET -0.000001 -1.891870 -0.000008
					}
				}
			}
		}
	}
	JOINT LeftUpLeg
	{
		OFFSET 2.338570 -0.000001 -0.683181
		CHANNELS 3 Zrotation Xrotation Yrotation
		JOINT LeftLeg
		{
			OFFSET -0.000005 0.000007 -10.744960
			CHANNELS 3 Zrotation Xrotation Yrotation
			JOINT LeftFoot
			{
				OFFSET -0.000005 0.000007 -10.930849
				CHANNELS 3 Zrotation Xrotation Yrotation
				JOINT LeftToeBase
				{
					OFFSET -0.000002 -4.087269 -1.487650
					CHANNELS 3 Zrotation Xrotation Yrotation
					End Site
					{
						OFFSET -0.000001 -1.891870 -0.000008
					}
				}
			}
		}
	}
}
MOTION
Frames: 8
Frame Time: 0.04
-1.999998 -1.259122 24.959536 171.092141 6.591001 -2.668772 -1.185634 1.588699 4.295602 -2.160269 8.061971 10.227565 3.219889 -4.776867 2.630375 18.648863 -2.449447 -7.048370 -7.669091 -7.572497 -1.422181 -13.134915 6.814685 -5.585387 -5.683896 -6.850099 1.788751 -35.158819 -20.652648 -125.713060 4.070444 51.774671 -14.928302 -7.243153 27.274096 20.238004 0.000000 -0.000004 -0.000006 0.000006 0.000001 0.000000 2.512620 -6.199019 -1.069281 -9.638642 -27.203771 47.309708 3.002203 0.000000 -0.000007 35.899450 -46.431387 44.193346 -0.000007 0.000002 0.000004 -0.000000 0.000001 0.000002 2.793119 -24.243946 7.177417 -0.548042 6.340485 5.784144 11.199010 -6.023162 4.423279 -0.000002 4.916499 -0.000006 10.075813 -16.684684 -12.489293 -0.000003 5.186696 0.000000 7.473133 -4.492968 4.887210 0.000002 -2.894505 -0.000000 
-1.999998 -1.259122 24.959536 171.092141 6.591001 -2.668772 -1.185634 1.588699 4.295602 -2.160269 8.061971 10.227565 3.219889 -4.776867 2.630375 18.648863 -2.449447 -7.048370 -7.669091 -7.572497 -1.422181 -13.134915 6.814685 -5.585387 -5.683896 -6.850099 1.788751 -35.158819 -20.652648 -125.713060 4.070444 51.774671 -14.928302 -7.243153 27.274096 20.238004 0.000000 -0.000004 -0.000006 0.000006 0.000001 0.000000 2.512620 -6.199019 -1.069281 -9.638642 -27.203771 47.309708 3.002203 0.000000 -0.000007 35.899450 -46.431387 44.193346 -0.000007 0.000002 0.000004 -0.000000 0.000001 0.000002 2.793119 -24.243946 7.177417 -0.548042 6.340485 5.784144 11.199010 -6.023162 4.423279 -0.000002 4.916499 -0.000006 10.075813 -16.684684 -12.489293 -0.000003 5.186696 0.000000 7.473133 -4.492968 4.887210 0.000002 -2.894505 -0.000000 
-4.001854 0.662055 24.959534 171.092141 6.591001 -2.668772 -0.664342 0.587168 1.471310 -1.024289 3.894216 4.638634 3.219891 -4.776865 2.630375 12.180643 -5.343627 -4.781489 -5.526076 -3.333573 0.430099 -12.060750 8.613934 -2.019208 -5.683895 -6.850100 1.788750 -33.277044 -8.190681 -93.173896 5.653502 52.764994 -18.900166 -7.243156 27.274089 20.238004 0.000001 0.000002 -0.000002 0.000003 0.000002 0.000001 2.512620 -6.199020 -1.069282 -14.263927 -4.296314 69.581664 1.183069 1.841358 4.823863 30.253958 -29.262272 9.098370 -6.155920 1.321018 3.826873 -3.515333 0.918450 2.166411 3.660925 -20.584500 12.652353 0.227741 8.771162 5.065477 9.645252 -10.919750 4.299312 -0.000002 4.916498 -0.000005 10.185360 -12.784689 -7.748407 -1.416943 8.398919 2.818570 8.157990 -12.341204 4.987692 0.000003 -2.894499 -0.000000 
-6.003710 2.583230 24.959532 171.092141 6.591001 -2.668772 -0.244464 -0.434813 -1.351710 -0.714178 -0.330650 -0.869385 3.219891 -4.776864 2.630374 5.999130 -8.613759 -2.401831 -3.666271 1.027998 2.281088 -11.278779 10.563218 1.619776 -5.683897 -6.850098 1.788751 -31.395268 4.271295 -60.634738 7.236562 53.755330 -22.872031 -7.243155 27.274091 20.238004 -0.000001 0.000006 -0.000003 -0.000003 0.000003 0.000003 2.512620 -6.199022 -1.069284 -18.889211 18.611133 91.853641 -0.636064 3.682717 9.647728 29.244719 -11.545789 -21.038014 -12.311831 2.642036 7.653744 -7.052108 1.836066 4.333650 3.835492 -17.009490 17.928960 1.065237 11.182314 4.345336 8.072148 -15.836854 4.207179 -0.000002 4.916497 -0.000007 9.723853 -8.992234 -3.131769 -3.152463 11.477705 5.688173 8.885433 -20.187630 5.191906 0.000002 -2.894499 0.000001 
-8.005566 4.504407 24.959532 171.092141 6.591001 -2.668772 0.073371 -1.469698 -4.176016 -1.219418 -4.493841 -6.385721 3.219890 -4.776864 2.630372 0.134152 -12.251345 0.064953 -2.097826 5.498622 4.157737 -10.811392 12.633315 5.343272 -5.683898 -6.850098 1.788751 -29.513483 16.733279 -28.095601 8.819618 54.745653 -26.843892 -7.243159 27.274089 20.238006 0.000001 0.000009 -0.000000 -0.000009 0.000008 0.000005 2.512620 -6.199020 -1.069284 -23.514502 41.518582 114.125617 -2.455199 5.524077 14.471593 29.239347 7.308486 -47.752571 -18.467740 3.963053 11.480615 -10.610337 2.752019 6.502538 3.378475 -13.604986 23.084684 1.964748 13.572760 3.620238 6.485293 -20.774275 4.145711 -0.000001 4.916497 -0.000007 8.728402 -5.370883 1.423673 -5.204415 14.399646 8.627612 9.690507 -28.030738 5.521533 0.000002 -2.894497 0.000003 
-8.005566 4.504407 24.959532 171.092141 6.591001 -2.668772 0.073371 -1.469698 -4.176016 -1.219418 -4.493841 -6.385721 3.219890 -4.776864 2.630372 0.134152 -12.251345 0.064953 -2.097826 5.498622 4.157737 -10.811392 12.633315 5.343272 -5.683898 -6.850098 1.788751 -29.513483 16.733279 -28.095601 8.819618 54.745653 -26.843892 -7.243159 27.274089 20.238006 0.000001 0.000009 -0.000000 -0.000009 0.000008 0.000005 2.512620 -6.199020 -1.069284 -23.514502 41.518582 114.125617 -2.455199 5.524077 14.471593 29.239347 7.308486 -47.752571 -18.467740 3.963053 11.480615 -10.610337 2.752019 6.502538 3.378475 -13.604986 23.084684 1.964748 13.572760 3.620238 6.485293 -20.774275 4.145711 -0.000001 4.916497 -0.000007 8.728402 -5.370883 1.423673 -5.204415 14.399646 8.627612 9.690507 -28.030738 5.521533 0.000002 -2.894497 0.000003 
-8.005566 4.504407 24.959532 171.092141 6.591001 -2.668772 0.073371 -1.469698 -4.176016 -1.219418 -4.493841 -6.385721 3.219890 -4.776864 2.630372 0.134152 -12.251345 0.064953 -2.097826 5.498622 4.157737 -10.811392 12.633315 5.343272 -5.683898 -6.850098 1.788751 -29.513483 16.733279 -28.095601 8.819618 54.745653 -26.843892 -7.243159 27.274089 20.238006 0.000001 0.000009 -0.000000 -0.000009 0.000008 0.000005 2.512620 -6.199020 -1.069284 -23.514502 41.518582 114.125617 -2.455199 5.524077 14.471593 29.239347 7.308486 -47.752571 -18.467740 3.963053 11.480615 -10.610337 2.752019 6.502538 3.378475 -13.604986 23.084684 1.964748 13.572760 3.620238 6.485293 -20.774275 4.145711 -0.000001 4.916497 -0.000007 8.728402 -5.370883 1.423673 -5.204415 14.399646 8.627612 9.690507 -28.030738 5.521533 0.000002 -2.894497 0.000003 
-6.003710 2.583230 24.959532 171.092141 6.591001 -2.668772 -0.244464 -0.434813 -1.351710 -0.714178 -0.330649 -0.869385 3.219890 -4.776865 2.630373 0.028292 -8.431743 -0.988879 -3.666272 1.027998 2.281087 -11.278778 10.563219 1.619777 -5.683896 -6.850100 1.788751 -31.395265 4.271293 -60.634745 7.236558 53.755324 -22.872034 -7.243151 27.274093 20.238008 0.000001 0.000003 -0.000000 -0.000005 -0.000001 0.000002 2.512620 -6.199022 -1.069284 -18.889213 18.611135 91.853641 -0.636064 3.682717 9.647727 29.244715 -11.545788 -21.038011 -12.311827 2.642037 7.653745 -7.052107 1.836062 4.333648 3.835491 -17.009492 17.928958 1.065237 11.182314 4.345337 8.072147 -15.836852 4.207181 -0.000001 4.916498 -0.000006 9.723853 -8.992233 -3.131769 -3.152463 11.477705 5.688174 8.885433 -20.187628 5.191905 0.000002 -2.894498 0.000002 
